<svg xmlns="http://www.w3.org/2000/svg" viewBox="0 0 97.34 139.35" width="97.34" height="139.35">
  <g fill="#B8860B" fill-rule="evenodd">
    <path d="M97.34,88.33c-14,2.58-23.62,7.13-32.81,18.19-7.44,8.85-9.84,15.98-11.81,26.92-.87,4.79,1.53,6.27,6.34,5.65,14.66-1.48,25.59-9.96,33.03-18.19,5.69-6.64,10.5-17.33,11.59-26.92.66-5.04-1.75-6.51-6.34-5.65"/>
    <path d="M.23,94.55c2.58,14,7.13,23.62,18.19,32.81,8.85,7.44,15.98,9.84,26.92,11.81,4.79.87,6.27-1.53,5.65-6.34-1.48-14.66-9.96-25.59-18.19-33.03-6.64-5.69-17.33-10.5-26.92-11.59-5.04-.66-6.51,1.75-5.65,6.34"/>
    <path d="M97.34.23c-14,2.58-23.62,7.13-32.81,18.19-7.44,8.85-9.84,15.98-11.81,26.92-.87,4.79,1.53,6.27,6.34,5.65,14.66-1.48,25.59-9.96,33.03-18.19,5.69-6.64,10.5-17.33,11.59-26.92.66-5.04-1.75-6.51-6.34-5.65"/>
    <path d="M.23,6.45c2.58,14,7.13,23.62,18.19,32.81,8.85,7.44,15.98,9.84,26.92,11.81,4.79.87,6.27-1.53,5.65-6.34-1.48-14.66-9.96-25.59-18.19-33.03C26.17,6.01,15.47,1.2,5.88.11.84-.55-.63,1.86.23,6.45"/>
    <path d="M97.34,44.28c-14,2.58-23.62,7.13-32.81,18.19-7.44,8.85-9.84,15.98-11.81,26.92-.87,4.79,1.53,6.27,6.34,5.65,14.66-1.48,25.59-9.96,33.03-18.19,5.69-6.64,10.5-17.33,11.59-26.92.66-5.04-1.75-6.51-6.34-5.65"/>
    <path d="M.23,50.5c2.58,14,7.13,23.62,18.19,32.81,8.85,7.44,15.98,9.84,26.92,11.81,4.79.87,6.27-1.53,5.65-6.34-1.48-14.66-9.96-25.59-18.19-33.03-6.64-5.69-17.33-10.5-26.92-11.59-5.04-.66-6.51,1.75-5.65,6.34"/>
  </g>
</svg>
