<?xml version="1.0" encoding="UTF-8"?>
<svg id="Layer_1" xmlns="http://www.w3.org/2000/svg" version="1.1" viewBox="0 0 425.2 181.14">
  <!-- Generator: Adobe Illustrator 30.5.1, SVG Export Plug-In . SVG Version: 2.1.4 Build 3)  -->
  <defs>
    <style>
      .st0, .st1 {
        fill: #fff;
      }

      .st1 {
        fill-rule: evenodd;
      }
    </style>
  </defs>
  <path class="st1" d="M341.25,37.09c-7.63,1.41-12.88,3.89-17.89,9.92-4.05,4.82-5.37,8.71-6.44,14.68-.48,2.61.84,3.42,3.46,3.08,7.99-.8,13.95-5.43,18.01-9.92,3.1-3.62,5.72-9.45,6.32-14.68.36-2.75-.95-3.55-3.46-3.08"/>
  <path class="st1" d="M299.51,48.01c-1.07,3.82,3.1,10.19,4.77,11.79,5.13,4.96,16.1,8.85,10.85-2.01-1.91-3.89-4.77-6.77-8.59-8.51-1.79-.87-4.77-2.01-7.04-1.27"/>
  <path class="st0" d="M395.36,98.01c-11.88-4.69-16.88-7.66-16.1-11.88.78-4.06,5.16-5.16,9.53-4.69,10.16.63,9.53,7.66,12.5,12.81,3.59,6.09,12.35,5.94,15.94,1.88,7.5-8.91-.78-25.47-25.94-26.88-14.85-.78-30,1.72-34.69,15.63-6.72,20.47,10.78,28.91,22.03,33.91,11.88,5.16,22.03,6.88,20.63,12.81-1.09,4.84-8.44,5-13.13,4.38-6.09-.94-12.35-1.72-15.78-12.19-2.81-8.44-12.03-9.06-16.72-4.06-9.53,10.31,2.97,28.75,35.63,28.75,17.34,0,31.57-5.47,35-19.06,4.84-19.38-10-23.75-28.91-31.41M342.23,131.92c-2.81-3.91-2.97-9.06-2.97-20v-31.57c0-8.75-4.69-12.97-13.59-10.47-1.72.47-10.94,3.28-15.78,4.84-4.69,1.56-7.03,3.59-7.19,6.88-.31,2.81.94,4.84,5,10.47,2.81,3.91,2.97,9.06,2.97,19.85s-.16,16.09-2.97,20c-4.06,5.62-5.31,7.66-5,10.47.16,3.28,2.34,4.69,7.19,4.69h30.16c4.69,0,6.88-1.41,7.19-4.69.16-2.81-.94-4.85-5-10.47M292.7,131.92c-2.81-3.91-2.97-9.06-2.97-20V47.69c0-8.91-4.69-13.13-13.6-10.63-1.72.63-10.94,3.28-15.63,4.84-4.84,1.56-7.03,3.59-7.34,6.88-.16,2.81.94,4.84,5,10.47,2.81,3.91,2.97,9.06,2.97,20v32.66c0,10.94-.16,16.09-2.97,20-4.06,5.62-5.16,7.66-5,10.47.31,3.28,2.5,4.69,7.34,4.69h30c4.84,0,7.03-1.41,7.19-4.69.31-2.81-.94-4.85-5-10.47M215.97,120.83c0,8.13-2.81,13.13-9.06,13.13-6.88,0-9.84-4.69-9.53-11.25.47-6.88,5.31-11.41,11.25-12.35,5.31-.94,7.34-.78,7.34,4.22v6.25ZM246.29,128.48c-3.44-3.59-2.97-12.81-2.97-23.6v-3.13c0-22.81-12.03-32.5-33.6-32.5-13.28,0-29.22,2.81-33.75,14.69-2.66,6.72,1.25,11.72,5.47,13.28,6.88,2.34,12.97.16,15.94-9.38,1.88-5.94,6.25-7.19,10.78-6.56,6.25.94,6.72,7.81,6.72,16.56v2.19c-27.35,0-46.41,6.09-46.41,26.88,0,12.81,10,21.56,26.88,21.56,10,0,16.41-3.44,20.63-10,2.5,6.72,8.44,10,20,10,8.75,0,17.34-5.16,17.66-11.88.31-4.69-3.44-4.06-7.34-8.13M151.59,69.26c-8.59,0-14.53,3.59-18.75,8.13-.94-6.72-5.47-9.69-13.28-7.5-1.72.47-10.94,3.28-15.63,4.84-4.84,1.56-7.03,3.59-7.34,6.88-.16,2.81.94,4.84,5,10.47,2.81,3.91,2.97,9.69,2.97,20.31s-.16,15.63-2.97,19.53c-4.06,5.62-5.16,7.66-5,10.47.31,3.28,2.5,4.69,7.34,4.69h31.1c4.84,0,6.72-1.56,7.19-4.69.47-2.97-1.72-5.94-6.09-10.47-2.81-3.13-2.97-9.06-2.97-20v-19.22c.16-5,1.09-7.97,5-7.97,5.31,0,4.38,5.16,8.59,10.78,5.94,7.97,17.34,6.09,21.56-1.25,6.25-11.25,0-25-16.72-25M48.3,132.55c-9.69,0-14.53-10-14.53-23.75s4.84-23.75,14.53-23.75,14.38,10,14.38,23.75-4.84,23.75-14.38,23.75M55.33,69.26c-8.13.16-14.22,3.13-19.06,7.5-1.25-6.25-5.62-9.06-13.28-6.88-1.72.47-10.94,3.28-15.78,4.84-4.69,1.56-6.88,3.59-7.19,6.88-.16,2.81.94,4.84,5,10.47,2.81,3.91,2.97,9.06,2.97,19.85v34.22c0,10.78-.16,15.94-2.97,19.85C.95,171.61-.14,173.64.01,176.46c.31,3.28,2.5,4.69,7.19,4.69h31.25c4.69,0,6.72-1.41,7.19-4.69.47-2.97-1.72-5.78-6.09-10.47-2.97-2.97-2.97-9.06-2.97-19.85v-5c4.69,4.22,10.94,7.03,18.75,7.34,22.5.63,36.25-16.25,36.41-39.69-.16-23.44-13.91-40.32-36.41-39.53"/>
  <path class="st0" d="M40.63,19.04c0,8.3-6.52,14.96-16.54,14.96h-7.31v3.1c0,2.9.2,4.61,1.25,5.8,1.84,1.98,2.77,3.16,2.57,4.41-.2,1.32-.99,1.98-3.03,1.98H3.99c-2.04,0-2.97-.66-3.1-1.98-.07-1.19.4-2.04,2.11-4.41,1.19-1.65,1.32-3.82,1.32-8.43v-16.47c0-4.55-.13-6.72-1.32-8.43C1.29,7.18.83,6.39.89,5.2c.13-1.38,1.05-2.04,3.1-2.04h19.31c12.78,0,17.33,7.58,17.33,15.88M27.38,18.38c0-5.14-2.64-8.96-7.05-8.96h-.26c-3.03,0-3.29.99-3.29,4.28v9.29c0,3.29.26,4.35,3.29,4.35h.26c4.42,0,7.05-3.89,7.05-8.96"/>
  <path class="st0" d="M76.2,44.87c-.13,2.83-3.76,5.01-7.45,5.01-4.88,0-7.38-1.38-8.43-4.22-1.78,2.77-4.48,4.22-8.7,4.22-7.12,0-11.33-3.69-11.33-9.09,0-8.76,8.04-11.33,19.57-11.33v-.92c0-3.69-.2-6.59-2.83-6.98-1.91-.26-3.76.26-4.55,2.77-1.25,4.02-3.82,4.94-6.72,3.95-1.78-.66-3.43-2.77-2.31-5.6,1.91-5.01,8.63-6.19,14.23-6.19,9.09,0,14.17,4.09,14.17,13.71v1.32c0,4.55-.2,8.43,1.25,9.95,1.65,1.71,3.23,1.45,3.1,3.43M60.32,35.58c0-2.11-.86-2.17-3.1-1.78-2.5.4-4.55,2.31-4.74,5.21-.13,2.77,1.12,4.74,4.02,4.74,2.64,0,3.82-2.11,3.82-5.53v-2.64Z"/>
  <path class="st0" d="M115.21,47.31c-.07,1.38-.99,1.98-3.03,1.98h-7.18c-2.83,0-4.35-.92-4.94-2.77-2.04,1.91-4.68,3.23-8.11,3.36-9.55.26-15.35-6.85-15.35-16.74s5.8-17,15.35-16.67c3.29.07,5.86,1.25,7.84,3.03,0-3.76-.13-5.73-1.25-7.25-1.71-2.37-2.17-3.23-2.11-4.42.13-1.38,1.05-2.24,3.1-2.9,1.98-.66,5.86-1.78,6.59-2.04,3.76-1.05,5.73.72,5.73,4.48v27.08c0,4.61.07,6.79,1.25,8.43,1.71,2.37,2.24,3.23,2.11,4.42M100.98,33.14c0-5.8-2.04-10.02-6.06-10.02s-6.13,4.22-6.13,10.02,2.04,10.08,6.13,10.08,6.06-4.28,6.06-10.08"/>
  <path class="st0" d="M152.83,44.87c-.13,2.83-3.76,5.01-7.45,5.01-4.88,0-7.38-1.38-8.43-4.22-1.78,2.77-4.48,4.22-8.7,4.22-7.12,0-11.33-3.69-11.33-9.09,0-8.76,8.04-11.33,19.57-11.33v-.92c0-3.69-.2-6.59-2.83-6.98-1.91-.26-3.76.26-4.55,2.77-1.25,4.02-3.82,4.94-6.72,3.95-1.78-.66-3.43-2.77-2.31-5.6,1.91-5.01,8.63-6.19,14.23-6.19,9.09,0,14.17,4.09,14.17,13.71v1.32c0,4.55-.2,8.43,1.25,9.95,1.65,1.71,3.23,1.45,3.1,3.43M136.95,35.58c0-2.11-.86-2.17-3.1-1.78-2.5.4-4.55,2.31-4.74,5.21-.13,2.77,1.12,4.74,4.02,4.74,2.64,0,3.82-2.11,3.82-5.53v-2.64Z"/>
  <path class="st0" d="M184.85,27.02c-1.78,3.1-6.59,3.89-9.09.53-1.78-2.37-1.38-4.55-3.62-4.55-1.65,0-2.04,1.25-2.11,3.36v8.11c0,4.61.07,7.12,1.25,8.43,1.85,1.91,2.77,3.16,2.57,4.42-.2,1.32-.99,1.98-3.03,1.98h-13.11c-2.04,0-2.97-.59-3.1-1.98-.07-1.19.4-2.04,2.11-4.42,1.19-1.65,1.25-3.82,1.25-8.24s-.07-6.92-1.25-8.57c-1.71-2.37-2.17-3.23-2.11-4.41.13-1.38,1.05-2.24,3.1-2.9,1.98-.66,5.86-1.84,6.59-2.04,3.29-.92,5.21.33,5.6,3.16,1.78-1.91,4.28-3.43,7.91-3.43,7.05,0,9.69,5.8,7.05,10.54"/>
  <path class="st0" d="M206.72,47.31c-.13,1.38-1.05,1.98-3.03,1.98h-12.72c-2.04,0-2.97-.59-3.03-1.98-.13-1.19.4-2.04,2.11-4.42,1.19-1.65,1.25-3.82,1.25-8.43s-.07-6.72-1.25-8.37c-1.71-2.37-2.24-3.23-2.11-4.42.07-1.38,1.05-2.24,3.03-2.9,2.04-.66,5.93-1.84,6.65-2.04,3.76-1.05,5.73.72,5.73,4.42v13.31c0,4.61.07,6.79,1.25,8.43,1.71,2.37,2.17,3.23,2.11,4.42M188.93,6.79c0-3.76,3.36-6.79,7.45-6.79s7.51,3.03,7.51,6.79-3.36,6.85-7.51,6.85-7.45-3.03-7.45-6.85"/>
  <path class="st0" d="M244.35,44.87c-.13,2.83-3.76,5.01-7.45,5.01-4.88,0-7.38-1.38-8.43-4.22-1.78,2.77-4.48,4.22-8.7,4.22-7.12,0-11.33-3.69-11.33-9.09,0-8.76,8.04-11.33,19.57-11.33v-.92c0-3.69-.2-6.59-2.83-6.98-1.91-.26-3.76.26-4.55,2.77-1.25,4.02-3.82,4.94-6.72,3.95-1.78-.66-3.43-2.77-2.31-5.6,1.91-5.01,8.63-6.19,14.23-6.19,9.09,0,14.17,4.09,14.17,13.71v1.32c0,4.55-.2,8.43,1.25,9.95,1.65,1.71,3.23,1.45,3.1,3.43M228.47,35.58c0-2.11-.86-2.17-3.1-1.78-2.5.4-4.55,2.31-4.74,5.21-.13,2.77,1.12,4.74,4.02,4.74,2.64,0,3.82-2.11,3.82-5.53v-2.64Z"/>
</svg>